<svg xmlns="http://www.w3.org/2000/svg" viewBox="0 0 511.26 342.45"><defs><style>.cls-1{fill:#df013a;}.cls-2{fill:#003790;}</style></defs><g id="Capa_2" data-name="Capa 2"><g id="レイヤー_1" data-name="レイヤー 1"><path class="cls-1" d="M227.53,50l49.79,34.4C287.11,91.3,298.71,97,316.39,97c27.52,0,52.47-18.48,52.47-18.48L255.23,0s-12.4,13.64-51.31,37.88c-40.85,25.46-62.27,32.85-62.27,32.85L288.78,172.37l-6.54,4.29-49.06-33.89c-9.78-6.91-21.38-12.59-39.07-12.59-27.52,0-52.46,18.48-52.46,18.48l113.63,78.5s12.4-13.64,51.3-37.89c40.85-25.45,62.28-32.85,62.28-32.85L221,54.28Z"/><path class="cls-2" d="M55.25,292.24c-12.17-1.57-23-1.88-23.28-6.31-.37-5.58,8.51-6.15,11.41-6.15,4.84,0,12.68,1.11,14.51,8.4H89c0-14-13.29-25.09-45.49-25.18-35.81-.1-41.88,15.72-41.88,24.7,0,16.64,12.9,21.55,40.87,24.49,10.37,1.08,17,1,17,6.22s-7.89,5.86-11.21,5.86c-3,0-11.66,0-14.47-8.71H0c1.47,16.35,11.78,25.94,48.2,25.84,34.3-.1,43.28-14,43.28-24.65C91.48,306.45,84.44,296,55.25,292.24Z"/><polygon class="cls-2" points="193.15 284.06 234.24 284.06 191.72 323.78 191.72 339.62 278.07 339.62 278.07 320.64 235.11 320.64 278.21 281.02 278.21 265.17 193.15 265.17 193.15 284.06"/><rect class="cls-2" x="483.17" y="265.17" width="28.09" height="74.44"/><polygon class="cls-2" points="440.6 265.17 410.71 290.82 410.71 265.17 382.59 265.17 382.59 339.62 410.71 339.62 410.71 313.23 438.46 339.62 476.27 339.62 435.15 301.45 477.61 265.17 440.6 265.17"/><path class="cls-2" d="M156.91,296.4v11.72c0,9.15-3.32,15.22-15.76,15.22s-15.77-6.07-15.77-15.22V265.17H98.45v27.12c0,3.58.07,15.59.14,22.31.1,9.58,2.46,27.85,42.56,27.85s42.45-18.27,42.55-27.85c.07-6.72.14-18.73.14-22.31V265.17H156.91Z"/><path class="cls-2" d="M346,296.4v11.72c0,9.15-3.32,15.22-15.76,15.22s-15.76-6.07-15.76-15.22V265.17H287.52v27.12c0,3.58.08,15.59.15,22.31.09,9.58,2.45,27.85,42.55,27.85s42.46-18.27,42.56-27.85c.06-6.72.14-18.73.14-22.31V265.17H346Z"/></g></g></svg>